# xmcd
#
# Track frame offsets:
#	150
#	19399
#	41297
#	60373
#	78604
#	97130
#	110339
#	138150
#
# Disc length: 2134 seconds
#
# Revision: 0
# Processed by: cddbd v1.4PL0 Copyright (c) Steve Scherf et al.
# Submitted via: dBpowerAMP V4.0
#
DISCID=61085408
DTITLE=Men Behaving Sadly - Best Behaviour
DYEAR=2002
DGENRE=Blues
TTITLE0=It's Too Late
TTITLE1=Baby Girl
TTITLE2=Two Timing Lover
TTITLE3=Mouse In a Wheel
TTITLE4=For What It's Worth
TTITLE5=Don't Push Me Down
TTITLE6=Boys On The Run
TTITLE7=Doctor Doctor
EXTD=
EXTT0=
EXTT1=
EXTT2=
EXTT3=
EXTT4=
EXTT5=
EXTT6=
EXTT7=
PLAYORDER=
